<?xml version="1.0" standalone="no"?>
<!DOCTYPE svg PUBLIC "-//W3C//DTD SVG 20010904//EN"
 "http://www.w3.org/TR/2001/REC-SVG-20010904/DTD/svg10.dtd">
<svg version="1.0" xmlns="http://www.w3.org/2000/svg"
 width="1024.000000pt" height="1024.000000pt" viewBox="0 0 1024.000000 1024.000000"
 preserveAspectRatio="xMidYMid meet">
<metadata>
Created by potrace 1.14, written by Peter Selinger 2001-2017
</metadata>
<g transform="translate(0.000000,1024.000000) scale(0.100000,-0.100000)"
fill="#000000" stroke="none">
<path d="M0 5120 l0 -5120 5120 0 5120 0 0 5120 0 5120 -5120 0 -5120 0 0
-5120z m4675 3480 c-4 -6 -32 -25 -63 -42 -77 -43 -199 -167 -251 -254 l-42
-71 -77 -6 c-129 -10 -269 -69 -361 -151 -37 -32 -87 -64 -137 -85 -267 -114
-567 -331 -825 -594 l-116 -118 -241 -5 c-133 -3 -242 -2 -242 3 0 5 23 36 51
68 28 33 72 87 97 120 126 164 319 348 524 501 125 93 388 251 533 320 223
106 544 221 735 264 227 51 430 75 415 50z m866 0 c455 -46 967 -258 1448
-599 192 -137 352 -285 505 -470 l37 -44 -50 -44 c-28 -24 -81 -90 -118 -147
l-68 -104 -90 105 c-193 225 -416 414 -695 588 -82 51 -186 107 -232 126 -84
33 -127 56 -232 124 -74 47 -189 89 -288 105 -64 11 -79 16 -84 34 -25 77
-155 227 -247 283 -43 26 -55 38 -45 44 17 11 35 11 159 -1z m-422 -165 c98
-23 173 -69 249 -150 73 -78 107 -137 133 -230 16 -59 17 -60 50 -57 19 1 77
3 129 5 89 2 100 0 163 -30 81 -39 165 -121 201 -197 79 -168 42 -383 -88
-510 -81 -79 -132 -101 -236 -101 -179 1 -280 75 -314 228 -4 15 -10 27 -14
26 -4 0 -29 -27 -55 -59 -63 -78 -162 -147 -241 -167 -51 -13 -73 -14 -135 -4
-68 10 -156 47 -189 78 -7 7 -18 13 -23 13 -5 0 -35 27 -67 59 l-59 59 -37
-63 c-69 -118 -145 -159 -292 -159 -107 0 -171 30 -249 117 -164 181 -174 420
-24 590 81 93 253 151 383 128 96 -17 92 -19 110 57 27 106 60 167 125 233
122 122 309 174 480 134z m2706 -1035 c31 -50 54 -717 55 -1574 l0 -498 -22 6
c-13 3 -87 6 -165 6 l-143 0 0 53 c0 28 5 72 11 96 5 24 7 46 5 49 -3 3 -59
-2 -123 -11 -112 -16 -271 -25 -274 -16 -5 13 14 512 22 604 11 112 16 140 68
396 41 202 125 407 235 572 56 84 159 200 212 239 27 20 60 48 73 62 26 28 36
32 46 16z m-3106 -290 c51 -42 122 -67 225 -80 99 -14 167 -5 297 36 72 23 79
27 79 51 l0 25 35 -26 c53 -41 131 -73 205 -87 l67 -12 6 -74 c3 -41 3 -141 0
-221 l-6 -145 -171 6 c-94 4 -375 7 -623 7 l-453 0 0 215 c0 164 3 217 13 219
133 39 218 71 242 91 17 14 34 25 38 25 5 0 25 -14 46 -30z m-2011 -76 l22
-26 -2 -541 -3 -542 -26 -56 c-48 -103 -138 -181 -224 -194 l-41 -7 1 -161 0
-162 -87 -3 c-87 -3 -87 -3 -94 24 -4 14 -4 89 -2 165 l5 139 -40 11 c-111 30
-201 124 -248 259 -22 64 -23 76 -26 555 -4 479 -4 491 16 523 28 43 79 45
112 5 21 -27 21 -33 15 -202 -3 -96 -3 -314 1 -484 l6 -309 34 -14 c38 -16
106 -9 129 13 14 14 19 247 19 844 0 130 2 149 19 168 24 27 67 27 92 0 17
-19 18 -47 20 -505 1 -449 3 -486 19 -504 25 -27 104 -27 136 -1 l24 19 2 479
c1 263 2 484 2 491 1 6 10 21 22 33 26 26 64 19 97 -17z m5477 -729 c56 -156
125 -444 157 -650 21 -135 23 -184 23 -500 0 -389 0 -390 -86 -785 -34 -157
-99 -395 -116 -424 -18 -29 -22 76 -23 544 0 289 -4 597 -10 685 -13 212 -13
1282 0 1269 5 -5 30 -68 55 -139z m-1453 10 c75 -37 145 -106 176 -175 23 -51
26 -72 33 -260 4 -113 9 -628 11 -1145 l3 -940 -33 -68 c-42 -85 -117 -161
-197 -199 l-62 -29 -1648 0 -1648 0 -83 40 c-98 47 -160 105 -201 189 l-28 57
0 1130 c0 1074 1 1133 19 1185 36 109 92 167 205 212 55 23 65 23 536 28 264
3 1016 5 1670 5 l1190 -1 57 -29z m-4961 -507 c37 -73 96 -154 164 -225 39
-41 61 -71 56 -77 -18 -23 -31 -89 -62 -296 -29 -200 -31 -244 -39 -625 -16
-733 -15 -731 -98 -399 -102 411 -117 497 -133 805 -14 273 0 562 40 844 6 39
11 93 12 120 l1 50 19 -77 c10 -43 28 -97 40 -120z m6119 -632 l0 -56 -185 0
-185 0 4 53 c3 28 5 53 6 53 0 1 81 2 180 3 l180 2 0 -55z m-5370 -11 l0 -55
-185 0 -185 0 0 55 0 55 185 0 185 0 0 -55z m5345 -168 c11 -4 28 -19 39 -33
17 -24 18 -55 17 -646 -2 -674 1 -637 -58 -716 -26 -34 -96 -75 -150 -87 -77
-16 -192 47 -236 128 -22 42 -22 43 -25 666 l-3 624 32 33 c20 20 44 34 63 36
60 6 301 2 321 -5z m-5319 -32 l33 -35 -1 -618 c-1 -484 -5 -624 -15 -649 -35
-85 -126 -146 -219 -146 -68 0 -166 51 -211 111 -53 70 -56 94 -44 380 6 140
11 407 11 593 l0 337 35 31 36 31 171 0 171 0 33 -35z m164 -1582 c24 -32 124
-139 224 -238 283 -281 484 -429 781 -575 329 -162 611 -246 985 -296 422 -55
976 17 1395 182 369 146 658 329 940 596 95 90 301 323 324 366 l12 22 37 -36
c61 -61 218 -120 283 -107 16 3 29 1 29 -4 0 -21 -86 -142 -165 -233 -123
-141 -357 -366 -465 -446 -559 -415 -1117 -638 -1740 -694 -251 -22 -654 -5
-921 40 -266 44 -577 149 -864 290 -479 236 -863 555 -1213 1006 l-32 41 73 5
c57 4 87 12 143 41 40 20 82 50 95 66 13 16 27 30 30 30 4 1 26 -25 49 -56z
m2773 -135 c4 -46 7 -108 7 -138 l0 -55 -491 -2 -490 -2 5 42 c3 23 8 83 12
132 3 50 8 93 11 98 2 4 215 7 472 7 l468 0 6 -82z m54 -348 l493 0 0 -105 0
-105 -1030 0 -1031 0 7 93 c4 50 10 96 15 101 19 21 117 25 573 21 264 -3 701
-5 973 -5z m-2235 -1207 c36 -34 35 -63 -1 -102 -38 -40 -86 -42 -130 -5 -41
34 -40 64 4 103 46 40 88 41 127 4z m3566 -3 c46 -29 47 -70 1 -112 -39 -37
-87 -38 -123 -2 -77 78 24 173 122 114z m-3254 -42 c-2 -57 -27 -88 -72 -88
-41 0 -82 23 -82 45 0 26 22 63 44 74 11 5 41 9 66 8 l45 -2 -1 -37z m2898 15
c15 -15 28 -34 28 -43 0 -24 -33 -51 -72 -59 -56 -12 -65 -6 -75 60 -5 32 -7
61 -5 64 3 3 26 5 51 5 35 0 51 -6 73 -27z m-1270 -94 c121 -12 151 -28 156
-81 2 -27 -1 -37 -15 -43 -31 -13 -511 -18 -605 -7 -101 13 -128 26 -128 63 0
40 30 60 107 68 103 12 369 12 485 0z"/>
<path d="M4865 8266 c-68 -17 -106 -38 -143 -81 -42 -47 -57 -79 -82 -166 -33
-122 -24 -199 24 -199 21 0 26 8 40 69 31 138 138 275 249 320 59 24 71 43 38
61 -25 13 -63 12 -126 -4z"/>
<path d="M4140 7808 c-60 -30 -89 -89 -97 -191 -5 -70 -4 -75 18 -91 13 -9 28
-16 34 -16 6 0 19 30 29 67 20 77 43 125 92 193 19 26 34 50 34 54 0 14 -69 4
-110 -16z"/>
<path d="M7659 7055 c-34 -19 -92 -110 -156 -250 -115 -248 -160 -485 -179
-946 l-6 -165 68 11 69 11 6 210 c8 253 37 472 86 634 41 138 66 195 141 320
58 97 69 143 43 174 -16 20 -38 20 -72 1z"/>
<path d="M4971 6214 c-12 -15 -21 -39 -21 -54 0 -38 35 -80 68 -80 36 0 82 46
82 82 0 68 -89 103 -129 52z"/>
<path d="M3474 5965 c-17 -7 -45 -30 -62 -51 l-32 -39 1 -882 0 -882 22 -32
c12 -18 35 -42 50 -53 l28 -21 1512 -3 c1107 -2 1519 1 1539 9 15 6 44 29 63
50 l35 39 2 863 c1 474 2 874 1 890 -1 33 -44 92 -81 111 -39 20 -3030 21
-3078 1z m241 -1079 c32 -25 65 -80 65 -109 0 -22 -55 -77 -78 -77 -24 0 -91
52 -115 90 -21 34 -13 60 32 97 34 29 57 29 96 -1z m-8 -356 c23 0 53 -43 53
-76 0 -44 -42 -94 -80 -94 -20 0 -39 12 -69 45 -57 62 -55 91 9 119 19 9 44
14 55 11 11 -3 25 -5 32 -5z m307 -126 c12 -4 16 -20 16 -55 0 -70 -29 -101
-101 -107 -67 -5 -109 21 -109 69 0 42 26 87 52 92 37 7 125 8 142 1z"/>
<path d="M4962 3860 c-70 -43 -75 -140 -11 -194 45 -38 83 -34 130 13 33 32
39 45 39 80 0 33 -7 48 -32 76 -42 45 -82 53 -126 25z"/>
<path d="M7650 4788 c-65 -44 -62 -116 6 -144 48 -20 80 -11 104 29 26 42 25
70 -2 101 -34 37 -67 41 -108 14z"/>
<path d="M7631 4364 c-51 -42 -41 -118 19 -149 43 -22 68 -19 101 14 21 22 29
39 29 66 0 27 -8 44 -29 66 -37 37 -79 38 -120 3z"/>
<path d="M7648 3884 c-59 -32 -65 -99 -14 -150 41 -41 73 -43 114 -9 52 44 42
129 -19 161 -35 17 -47 17 -81 -2z"/>
<path d="M2314 4800 c-27 -11 -64 -57 -64 -81 0 -50 51 -99 105 -99 34 0 85
52 85 87 0 34 -28 79 -57 92 -28 13 -40 13 -69 1z"/>
<path d="M2279 4351 c-47 -48 -38 -116 21 -146 44 -23 69 -18 106 19 38 38 43
69 17 106 -41 60 -97 68 -144 21z"/>
<path d="M2284 3866 c-27 -27 -34 -42 -34 -72 0 -88 101 -127 161 -63 32 35
36 66 14 109 -35 67 -90 77 -141 26z"/>
</g>
</svg>
